# xmcd
#
# Track frame offsets:
#	150
#	15508
#	32533
#	49433
#	69937
#	89977
#	123546
#	142954
#	160494
#	180173
#	199819
#	216778
#	237783
#	251090
#
# Disc length: 3623 seconds
#
# Revision: 0
# Processed by: cddbd v1.5.2PL0 Copyright (c) Steve Scherf et al.
# Submitted via: EasyCDDAExtractor 11.5.3.1
#
DISCID=c40e250e
DTITLE=Ray Goodman and Brown - A Moment With Friends
DYEAR=1900
DGENRE=R&B
TTITLE0=You Are Everything
TTITLE1=La La Means I Love You
TTITLE2=Spinning Around
TTITLE3=Side Show
TTITLE4=Breakup to Makeup
TTITLE5=Coldest Days of My Life
TTITLE6=Break Your Promise
TTITLE7=I'm So Proud
TTITLE8=Oo Baby Baby
TTITLE9=Look Over Your Shoulder
TTITLE10=Didn't I Blow Your Mind
TTITLE11=Feels So Good To Be Loved So Bad
TTITLE12=You've Been My Inspiration
TTITLE13=3 Ring Circus
EXTD=
EXTT0=
EXTT1=
EXTT2=
EXTT3=
EXTT4=
EXTT5=
EXTT6=
EXTT7=
EXTT8=
EXTT9=
EXTT10=
EXTT11=
EXTT12=
EXTT13=
PLAYORDER=
